<svg xmlns="http://www.w3.org/2000/svg" style="background-color:#FFF" viewBox="325.5 261.5 53 53">
    <path stroke="black" fill="none" stroke-width="1" d="M336, 296L368, 296" />
    <path stroke="black" fill="none" stroke-width="1" d="M352, 272L352, 312L344, 304L352, 272" />
    <path stroke="black" fill="none" stroke-width="1"
        d="M328, 262L336, 262L336.79, 262.15L337.45, 262.6L337.86, 263.22L338, 264L338, 312L337.86, 312.79L337.45, 313.45L336.79, 313.86L336, 314L328, 314L327.22, 313.86L326.6, 313.45L326.15, 312.79L326, 312L326, 264L326.15, 263.22L326.6, 262.6L327.22, 262.15L328, 262" />
    <path stroke="black" fill="none" stroke-width="1"
        d="M368, 262L376, 262L376.79, 262.15L377.45, 262.6L377.86, 263.22L378, 264L378, 312L377.86, 312.79L377.45, 313.45L376.79, 313.86L376, 314L368, 314L367.22, 313.86L366.6, 313.45L366.15, 312.79L366, 312L366, 264L366.15, 263.22L366.6, 262.6L367.22, 262.15L368, 262" />
    <path stroke="black" fill="none" stroke-width="1" d="M352, 272L360, 304L352, 312L352, 272" />
</svg>