<svg version="1.0" xmlns="http://www.w3.org/2000/svg" preserveAspectRatio="xMidYMid meet" viewBox="60 180 1800 1620">

<g transform="translate(0.000000,1920.000000) scale(0.100000,-0.100000)" fill="#000000" stroke="none">
<path d="M8400 17100 l0 -300 -300 0 -300 0 0 -600 0 -600 -300 0 -300 0 0 -600 0 -600 -300 0 -300 0 0 -300 0 -300 -300 0 -300 0 0 -600 0 -600 -300 0 -300 0 -2 -597 -3 -598 -297 -3 -298 -2 0 -300 0 -300 -300 0 -300 0 0 -600 0 -600 -300 0 -300 0 0 -600 0 -600 -300 0 -300 0 0 -300 0 -300 -300 0 -300 0 0 -600 0 -600 -300 0 -300 0 0 -600 0 -600 -300 0 -300 0 0 -300 0 -300 -300 0 -300 0 0 -1200 0 -1200 300 0 300 0 0 -300 0 -300 300 0 300 0 0 -300 0 -300 7800 0 7800 0 0 300 0 300 300 0 300 0 0 300 0 300 300 0 300 0 0 1200 0 1200 -300 0 -300 0 0 300 0 300 -300 0 -300 0 0 600 0 600 -300 0 -300 0 0 600 0 600 -300 0 -300 0 0 300 0 300 -300 0 -300 0 0 600 0 600 -300 0 -300 0 0 600 0 600 -300 0 -300 0 0 300 0 300 -300 0 -300 0 0 600 0 600 -300 0 -300 0 0 600 0 600 -300 0 -300 0 0 300 0 300 -300 0 -300 0 0 600 0 600 -300 0 -300 0 0 600 0 600 -300 0 -300 0 0 300 0 300 -1200 0 -1200 0 0 -300z m2398 -902 l2 -598 300 0 300 0 0 -600 0 -600 298 -2 297 -3 3 -297 2 -298 300 0 300 0 0 -600 0 -600 300 0 300 0 0 -600 0 -600 300 0 300 0 0 -300 0 -300 298 -2 297 -3 3 -597 2 -598 298 -2 297 -3 3 -597 2 -598 300 0 300 0 0 -300 0 -300 298 -2 297 -3 3 -597 2 -598 298 -2 297 -3 3 -597 2 -598 300 0 300 0 0 -300 0 -300 300 0 300 0 0 -1200 0 -1200 -300 0 -300 0 0 -300 0 -300 -7800 0 -7800 0 0 300 0 300 -300 0 -300 0 0 1200 0 1200 300 0 300 0 0 300 0 300 300 0 300 0 0 600 0 600 300 0 300 0 0 600 0 600 300 0 300 0 0 300 0 300 300 0 300 0 0 600 0 600 300 0 300 0 0 600 0 600 300 0 300 0 0 300 0 300 300 0 300 0 0 600 0 600 300 0 300 0 0 600 0 600 300 0 300 0 2 298 3 297 298 3 297 2 0 600 0 600 300 0 300 0 0 593 c0 327 3 597 7 600 3 4 542 6 1197 5 l1191 -3 3 -597z"/>
<path d="M9000 14700 l0 -300 -300 0 -300 0 0 -600 0 -600 -300 0 -300 0 0 -600 0 -600 -300 0 -300 0 0 -600 0 -600 -300 0 -300 0 0 -300 0 -300 -300 0 -300 0 0 -600 0 -600 -300 0 -300 0 0 -600 0 -600 -300 0 -300 0 0 -600 0 -600 -300 0 -300 0 0 -300 0 -300 -300 0 -300 0 0 -600 0 -600 -300 0 -300 0 0 -600 0 -600 298 -2 297 -3 3 -297 2 -298 6000 0 6000 0 0 300 0 300 300 0 300 0 0 600 0 600 -300 0 -300 0 0 600 0 600 -300 0 -300 0 0 600 0 600 -300 0 -300 0 0 300 0 300 -300 0 -300 0 0 600 0 600 -300 0 -300 0 0 600 0 600 -300 0 -300 0 0 600 0 600 -300 0 -300 0 0 300 0 300 -300 0 -300 0 0 600 0 600 -300 0 -300 0 0 600 0 600 -300 0 -300 0 0 300 0 300 -600 0 -600 0 0 -300z m1198 -902 l2 -598 300 0 300 0 0 -600 0 -600 300 0 300 0 0 -300 0 -300 300 0 300 0 0 -600 0 -600 300 0 300 0 0 -600 0 -600 300 0 300 0 0 -600 0 -600 300 0 300 0 0 -300 0 -300 298 -2 297 -3 3 -597 2 -598 300 0 300 0 0 -600 0 -600 300 0 300 0 0 -600 0 -600 -6000 0 -6000 0 0 600 0 600 300 0 300 0 0 600 0 600 300 0 300 0 0 300 0 300 300 0 300 0 0 600 0 600 300 0 300 0 0 600 0 600 300 0 300 0 0 600 0 600 300 0 300 0 2 298 3 297 298 3 297 2 0 600 0 600 300 0 300 0 0 600 0 600 300 0 300 0 0 600 0 600 598 -2 597 -3 3 -597z"/>
<path d="M9000 11100 l0 -300 -300 0 -300 0 0 -1500 0 -1500 300 0 300 0 0 -300 0 -300 600 0 600 0 0 300 0 300 300 0 300 0 0 1500 0 1500 -300 0 -300 0 0 300 0 300 -600 0 -600 0 0 -300z m1198 -1802 l2 -1498 -600 0 -600 0 0 1500 0 1500 598 -2 597 -3 3 -1497z"/>
<path d="M9000 6300 l0 -300 -300 0 -300 0 0 -600 0 -600 300 0 300 0 0 -300 0 -300 600 0 600 0 0 300 0 300 300 0 300 0 0 600 0 600 -300 0 -300 0 0 300 0 300 -600 0 -600 0 0 -300z m1200 -900 l0 -600 -600 0 -600 0 0 600 0 600 600 0 600 0 0 -600z"/>
</g>
</svg>